<svg id="Capa_1" data-name="Capa 1" xmlns="http://www.w3.org/2000/svg" viewBox="0 0 482.05 215.68"><defs><style>.cls-1{fill:#fff;}</style></defs><path d="M328.5,145c-8.9,3-13.46,12.3-10.22,20.68a16.54,16.54,0,0,0,8.67,9l-7.75,65.64a14.89,14.89,0,0,0-2,.5,17.07,17.07,0,0,0-5.64,3.22l-32.38-16.36a15.24,15.24,0,0,0-.77-8c-3.29-8.4-13.17-12.71-22.09-9.64s-13.48,12.35-10.19,20.74a16.45,16.45,0,0,0,7.82,8.49L244,295a17.28,17.28,0,0,0-3,.72c-8.92,3.07-13.48,12.35-10.19,20.74s13.16,12.7,22.08,9.63,13.48-12.34,10.2-20.74a16.48,16.48,0,0,0-7.83-8.48l9.94-55.75a16.59,16.59,0,0,0,8.58-3.93l32.38,16.36a15.39,15.39,0,0,0,.8,8c3.26,8.4,13.15,12.74,22.05,9.71s13.52-12.33,10.28-20.7a16.68,16.68,0,0,0-8.7-9.06l7.75-65.64a13.32,13.32,0,0,0,2-.49c8.92-3.07,13.48-12.35,10.19-20.74S337.42,141.89,328.5,145Z" transform="translate(-11.35 -143.97)"/><path class="cls-1" d="M11.36,326.86c0-4.44,3.05-7.64,7.35-7.64S26,322.37,26,326.86c0,4.25-2.89,7.55-7.36,7.55A7.15,7.15,0,0,1,11.36,326.86Z" transform="translate(-11.35 -143.97)"/><path class="cls-1" d="M39.47,247.62h10.8v85.47H39.47Z" transform="translate(-11.35 -143.97)"/><path class="cls-1" d="M80.71,258.41c0,3.61-2.59,6.58-6.9,6.58a6.38,6.38,0,0,1-6.55-6.58A6.51,6.51,0,0,1,74,251.82,6.43,6.43,0,0,1,80.71,258.41ZM68.59,333.09V274.87H79.38v58.22Z" transform="translate(-11.35 -143.97)"/><path class="cls-1" d="M97.45,290.59c0-6.07-.2-10.89-.49-15.72h9.59l.6,9.58h.3c2.93-5.47,9.87-10.9,19.73-10.9,8.19,0,21,4.81,21,24.81v34.73H137.41V299.52c0-9.41-3.64-17.29-13.8-17.29A15.55,15.55,0,0,0,109,293.09a15.83,15.83,0,0,0-.75,4.91v35.09H97.45Z" transform="translate(-11.35 -143.97)"/><path class="cls-1" d="M176.69,301.57h.24c1.46-2.05,3.51-4.63,5.21-6.64l17.59-20.06h13l-23,23.94L216,333.09H202.77l-20.53-28-5.55,6.06v21.92H165.9V247.62h10.79Z" transform="translate(-11.35 -143.97)"/><path class="cls-1" d="M277.91,303.42c0,21.56-15.33,31-29.67,31-16.18,0-28.68-11.51-28.68-30,0-19.48,13.12-30.87,29.63-30.87C266.34,273.55,277.91,285.69,277.91,303.42Zm-47.31.68c0,12.77,7.5,22.38,18.09,22.38,10.4,0,18.18-9.49,18.18-22.7,0-9.85-5.09-22.3-18-22.3C236.14,281.48,230.6,293.06,230.6,304.1Z" transform="translate(-11.35 -143.97)"/><path class="cls-1" d="M291.63,290.59c0-6.07-.2-10.89-.49-15.72h9.43l.57,9.37h.3c3.32-5.53,8.89-10.69,18.84-10.69a17.53,17.53,0,0,1,16.82,11.67h.24a23.86,23.86,0,0,1,6.73-7.58,20.67,20.67,0,0,1,13.13-4.09c8,0,19.7,5,19.7,25.26v34.28H366.31V300.16c0-11.28-4.26-18-12.95-18-6.22,0-11,4.42-12.91,9.53a17,17,0,0,0-.89,5.31v36H329V298.15c0-9.27-4.2-15.94-12.4-15.94-6.76,0-11.72,5.27-13.52,10.57a16.26,16.26,0,0,0-.82,5.21v35.1h-10.6Z" transform="translate(-11.35 -143.97)"/><path class="cls-1" d="M396.84,274.87l13,34.41c1.4,3.85,2.86,8.41,3.84,11.88h.3c1.06-3.43,2.38-7.89,3.81-12.11l11.8-34.18h11.52l-16.33,41.47c-7.73,20-13.05,30.21-20.44,36.51a30.29,30.29,0,0,1-13.3,6.8l-2.7-8.85a28.56,28.56,0,0,0,9.51-5.17A33.59,33.59,0,0,0,407,333.84a6.27,6.27,0,0,0,.84-2.56,6.77,6.77,0,0,0-.75-2.71l-22-53.7Z" transform="translate(-11.35 -143.97)"/><path class="cls-1" d="M483.62,333.09l-1-7.36h-.33c-3.27,4.55-9.7,8.68-18.25,8.68-12.05,0-18.22-8.35-18.22-16.7,0-14.1,12.81-21.85,35.85-21.69v-1.24c0-4.73-1.36-13.49-13.58-13.43a29.58,29.58,0,0,0-15.54,4.34l-2.47-7c4.95-3.11,12.17-5.1,19.7-5.1,18.23,0,22.68,12.16,22.68,23.83v21.78a88.75,88.75,0,0,0,.9,13.93Zm-1.69-29.73c-11.74-.24-25.19,1.82-25.19,13.07,0,6.95,4.69,10.14,10.13,10.14,7.86,0,12.81-4.83,14.54-9.75a10.62,10.62,0,0,0,.52-3.33Z" transform="translate(-11.35 -143.97)"/><path d="M248.67,281.11c-24.13,0-24.17,45.91,0,45.91S272.84,281.11,248.67,281.11Z" transform="translate(-11.35 -143.97)"/></svg>