<svg id="_9af98f83-10c5-4067-bc84-20554b2827d8" data-name="9af98f83-10c5-4067-bc84-20554b2827d8" xmlns="http://www.w3.org/2000/svg" viewBox="0 0 1009.54 789.93">
  <defs>
    <style>
      .cls-1, .cls-3 {
        fill: #7b77ff;
      }

      .cls-1, .cls-2, .cls-9 {
        opacity: 0.1;
        isolation: isolate;
      }

      .cls-2, .cls-5 {
        fill: #fff;
      }

      .cls-4 {
        fill: #3f3d56;
      }

      .cls-6 {
        fill: #ff6584;
      }

      .cls-7 {
        fill: #2f2e41;
      }

      .cls-8 {
        fill: #9f616a;
      }
    </style>
  </defs>
  <ellipse class="cls-1" cx="512.66" cy="741.27" rx="272.44" ry="33.36"/>
  <path class="cls-1" d="M586.55,111.4c-64.72-2.24-126.36-23.14-185.22-46S284.17,17.22,221,5.11C180.37-2.68,133.9-3.79,101.17,18,69.66,39,59.48,75.12,54,108.69c-4.12,25.26-6.54,51.85,4.74,75.5,7.84,16.42,21.74,30.22,31.36,45.95,33.47,54.72,9.81,122.2-26.45,175.63-17,25.06-36.75,49-49.88,75.65S-5.42,538.71,6.07,566c11.38,27,38.51,47.24,67.9,61.49,59.69,28.95,130,37.23,198.61,41.93,151.83,10.38,304.46,5.89,456.69,1.38,56.34-1.66,112.92-3.35,168.34-12.06,30.78-4.84,62.55-12.52,84.9-31.06,28.36-23.53,35.39-63.37,16.38-92.87-31.88-49.5-120-61.79-142.31-114.9-12.26-29.24.33-61.8,18.16-88.91C913,272.8,977.07,221.77,980.44,155.29c2.32-45.66-28.49-91.39-76.13-113-49.93-22.65-119.18-19.8-156,17.69C710.36,98.54,643.7,113.39,586.55,111.4Z" transform="translate(0 0)"/>
  <polygon class="cls-2" points="471.39 444.46 457.33 447.16 457.33 426.39 470.5 423.07 471.39 444.46"/>
  <polygon class="cls-2" points="388.77 435.96 388.77 449.7 373.08 448.1 373.08 435.96 388.77 435.96"/>
  <polygon class="cls-2" points="368.3 440.29 368.3 447.6 352.62 445.99 352.62 440.29 368.3 440.29"/>
  <path class="cls-3" d="M653.77,112.39s-38-2.29-33.56,24.37c0,0-.89,4.71,3.38,6.85,0,0,.07-2,3.9-1.31a17.3,17.3,0,0,0,4.13.2,8.54,8.54,0,0,0,5.06-2.09h0s10.69-4.41,14.85-21.89c0,0,3.08-3.82,3-4.8l-6.42,2.75s2.19,4.63.46,8.48c0,0-.2-8.31-1.44-8.12-.25,0-3.33,1.61-3.33,1.61s3.77,8.06.92,13.93c0,0,1.08-9.94-2.1-13.35l-4.52,2.64s4.41,8.33,1.42,15.13c0,0,.77-10.43-2.37-14.49l-4.1,3.19s4.15,8.22,1.62,13.86c0,0-.33-12.14-2.51-13.06,0,0-3.58,3.16-4.12,4.46,0,0,2.83,6,1.07,9.11,0,0-1.08-8.09-2-8.13,0,0-3.57,5.36-3.94,9a19.44,19.44,0,0,1,3.07-9.54,10.67,10.67,0,0,0-5.46,2.83s.55-3.79,6.34-4.12c0,0,3-4.07,3.74-4.32,0,0-5.76-.48-9.25,1.07,0,0,3.07-3.57,10.31-2l4-3.3s-7.58-1-10.8.11c0,0,3.7-3.16,11.89-.86l4.4-2.63s-6.46-1.4-10.31-.89c0,0,4.06-2.19,11.6.18l3.15-1.41s-4.74-.93-6.12-1.08-1.46-.53-1.46-.53a16.37,16.37,0,0,1,8.89,1S653.91,112.81,653.77,112.39Z" transform="translate(0 0)"/>
  <path class="cls-1" d="M769.23,245.73s-38-2.29-33.56,24.37c0,0-.89,4.71,3.38,6.85,0,0,.07-2,3.91-1.31a17.3,17.3,0,0,0,4.13.2,8.51,8.51,0,0,0,5-2.08h0s10.7-4.42,14.86-21.9c0,0,3.07-3.81,2.95-4.79l-6.42,2.74s2.19,4.63.47,8.48c0,0-.21-8.31-1.44-8.12-.25,0-3.34,1.61-3.34,1.61s3.78,8.07.93,13.93c0,0,1.08-9.94-2.11-13.35L753.52,255s4.41,8.33,1.42,15.13c0,0,.77-10.43-2.37-14.49l-4.09,3.2s4.14,8.21,1.62,13.85c0,0-.33-12.14-2.51-13.06,0,0-3.58,3.16-4.13,4.46,0,0,2.84,6,1.08,9.11,0,0-1.08-8.09-2-8.13,0,0-3.57,5.36-3.94,9a19.55,19.55,0,0,1,3.08-9.54,10.73,10.73,0,0,0-5.47,2.83s.56-3.79,6.35-4.12c0,0,3-4.07,3.74-4.32,0,0-5.76-.48-9.25,1.07,0,0,3.07-3.57,10.3-1.95l4-3.3s-7.59-1-10.8.11c0,0,3.7-3.16,11.89-.86l4.4-2.63s-6.47-1.39-10.32-.89c0,0,4.07-2.19,11.61.18l3.15-1.41s-4.74-.93-6.13-1.08-1.46-.53-1.46-.53a16.42,16.42,0,0,1,8.9,1S769.35,246.15,769.23,245.73Z" transform="translate(0 0)"/>
  <path class="cls-1" d="M538.38,222.06s8.75-37.09-18.29-37.22c0,0-4.49-1.68-7.32,2.16,0,0,1.93.41.62,4.07a17.69,17.69,0,0,0-.9,4,8.59,8.59,0,0,0,1.19,5.33h0s2.53,11.3,19,18.38c0,0,3.24,3.68,4.22,3.72l-1.6-6.79s-4.94,1.37-8.44-1c0,0,8.23,1.21,8.24,0,0-.25-1-3.56-1-3.56s-8.59,2.34-13.89-1.47c0,0,9.61,2.76,13.52.21l-1.8-4.92s-9,2.93-15.16-1.18c0,0,10.15,2.54,14.69.14L529,199.35s-8.8,2.68-13.93-.77c0,0,12,1.74,13.3-.24,0,0-2.5-4.07-3.69-4.83,0,0-6.36,1.78-9.16-.49,0,0,8.15.31,8.34-.55,0,0-4.67-4.43-8.23-5.43a19.63,19.63,0,0,1,8.89,4.66,10.77,10.77,0,0,0-1.86-5.87s3.64,1.2,3,7c0,0,3.5,3.6,3.61,4.42,0,0,1.45-5.59.52-9.3,0,0,3,3.64.17,10.49l2.56,4.55s2.32-7.3,1.73-10.66c0,0,2.49,4.18-1.18,11.86l1.85,4.79s2.47-6.14,2.63-10c0,0,1.47,4.38-2.16,11.41l.86,3.34s1.72-4.51,2.1-5.85.77-1.35.77-1.35a16.45,16.45,0,0,1-2.49,8.6S538,222.11,538.38,222.06Z" transform="translate(0 0)"/>
  <path class="cls-1" d="M455.16,234.7s-30.52-22.83-41.43,1.9c0,0-3.33,3.45-.94,7.58,0,0,1.14-1.61,4,1.06a17.45,17.45,0,0,0,3.34,2.44,8.58,8.58,0,0,0,5.37,1h0s11.36,2.19,24.44-10.12c0,0,4.67-1.5,5.11-2.38L448.16,235s-.72,5.07-4.27,7.34c0,0,4.39-7.06,3.25-7.57-.23-.11-3.67-.5-3.67-.5s-1.28,8.82-6.88,12.15c0,0,6.37-7.71,5.58-12.31l-5.23-.28s-.89,9.39-7.13,13.43c0,0,6.37-8.29,6-13.41l-5.18.42s-1.05,9.13-6.26,12.45c0,0,6.39-10.32,5.08-12.28,0,0-4.73.67-5.9,1.45,0,0-.91,6.54-4.11,8.2,0,0,3.55-7.35,2.83-7.86,0,0-5.93,2.51-8.26,5.37a19.57,19.57,0,0,1,7.82-6.28,10.77,10.77,0,0,0-6.12-.64s2.54-2.86,7.56,0c0,0,4.7-1.77,5.5-1.55,0,0-4.55-3.57-8.32-4.19,0,0,4.54-1.3,9.69,4l5.19-.53s-5.77-5-9.08-5.84c0,0,4.83-.61,10.4,5.81l5.12.23s-4.63-4.72-8.12-6.42c0,0,4.59.4,9.59,6.53l3.41.55s-3.45-3.38-4.53-4.26-.93-1.25-.93-1.25a16.4,16.4,0,0,1,6.89,5.72S455,235.11,455.16,234.7Z" transform="translate(0 0)"/>
  <path class="cls-1" d="M556.77,22.59s-30.52-22.84-41.43,1.9c0,0-3.33,3.45-.94,7.58,0,0,1.14-1.61,4,1.06a17.79,17.79,0,0,0,3.35,2.43,8.58,8.58,0,0,0,5.37,1h0s11.36,2.19,24.44-10.13c0,0,4.67-1.49,5.1-2.38l-6.89-1.19s-.71,5.07-4.27,7.34c0,0,4.4-7.06,3.26-7.57-.23-.11-3.67-.5-3.67-.5s-1.32,8.84-6.92,12.15c0,0,6.36-7.71,5.58-12.31l-5.23-.28s-.9,9.39-7.13,13.42c0,0,6.37-8.29,6-13.41l-5.17.42s-1.06,9.14-6.27,12.46c0,0,6.4-10.32,5.09-12.28,0,0-4.73.67-5.9,1.45,0,0-.91,6.54-4.11,8.2,0,0,3.55-7.35,2.83-7.87,0,0-5.93,2.52-8.26,5.38a19.41,19.41,0,0,1,7.82-6.28,10.73,10.73,0,0,0-6.13-.64s2.55-2.86,7.57.05c0,0,4.7-1.78,5.5-1.55,0,0-4.55-3.57-8.32-4.2,0,0,4.53-1.29,9.68,4l5.19-.53s-5.76-5-9.08-5.85c0,0,4.83-.6,10.41,5.82l5.12.22s-4.63-4.72-8.13-6.41c0,0,4.6.4,9.6,6.53l3.4.55s-3.46-3.34-4.54-4.2-.93-1.24-.93-1.24a16.4,16.4,0,0,1,6.89,5.72S556.6,23,556.77,22.59Z" transform="translate(0 0)"/>
  <path class="cls-1" d="M673.39,51.52s-12.2-36.11-35.21-21.92c0,0-4.7,1-5.07,5.71,0,0,1.85-.68,2.67,3.12a17.63,17.63,0,0,0,1.37,3.91A8.66,8.66,0,0,0,641,46.23h0s8.12,8.25,25.88,5.52c0,0,4.69,1.42,5.55.93l-5-4.91s-3.46,3.77-7.68,3.62c0,0,7.63-3.32,7-4.39-.13-.21-2.74-2.48-2.74-2.48s-6.06,6.53-12.56,6.1c0,0,9.61-2.74,11.57-7l-4.14-3.19s-6.06,7.22-13.49,7c0,0,10-3.21,12.53-7.65l-4.5-2.59s-6,6.93-12.22,6.71c0,0,11.12-4.87,11.15-7.23,0,0-4.27-2.13-5.68-2.15,0,0-4.46,4.87-8,4.43,0,0,7.08-4.05,6.78-4.88,0,0-6.3-1.29-9.85-.25a19.43,19.43,0,0,1,10-.75,10.79,10.79,0,0,0-4.69-4s3.72-.91,6.21,4.33c0,0,4.88,1.21,5.4,1.84,0,0-1.72-5.51-4.47-8.17,0,0,4.47,1.51,5.69,8.82l4.58,2.5s-1.89-7.41-4.17-10c0,0,4.33,2.24,5.27,10.69l4.1,3.09s-1.14-6.52-3.06-9.9c0,0,3.56,2.94,4.2,10.83l2.49,2.38s-.92-4.74-1.3-6.08-.07-1.43-.07-1.43a16.49,16.49,0,0,1,2.43,8.62S673,51.78,673.39,51.52Z" transform="translate(0 0)"/>
  <path class="cls-1" d="M593.77,53.3S555.87,49.08,559,76c0,0-1.13,4.66,3,7,0,0,.17-2,4-1.1a18.41,18.41,0,0,0,4.12.41,8.6,8.6,0,0,0,5.15-1.83h0s10.91-3.87,16-21.12c0,0,3.26-3.65,3.19-4.64l-6.55,2.42s2,4.73,0,8.49c0,0,.21-8.31-1-8.18-.25,0-3.41,1.44-3.41,1.44s3.36,8.25.22,14c0,0,1.58-9.88-1.43-13.44l-4.65,2.4s4,8.55.65,15.19c0,0,1.3-10.38-1.63-14.59l-4.25,3s3.72,8.41.91,13.92c0,0,.29-12.14-1.84-13.17,0,0-3.74,3-4.35,4.24,0,0,2.53,6.1.62,9.15,0,0-.67-8.13-1.55-8.21,0,0-3.84,5.17-4.4,8.82a19.47,19.47,0,0,1,3.56-9.38,10.75,10.75,0,0,0-5.6,2.55s.74-3.75,6.54-3.79c0,0,3.15-3.91,4-4.12,0,0-5.73-.77-9.3.6,0,0,3.25-3.42,10.39-1.43l4.21-3.09S568,60,564.77,61c0,0,3.86-3,11.92-.25l4.53-2.41S574.83,56.59,571,56.9c0,0,4.17-2,11.58.77l3.22-1.25s-4.69-1.17-6.07-1.39-1.43-.6-1.43-.6a16.42,16.42,0,0,1,8.84,1.44S593.84,53.72,593.77,53.3Z" transform="translate(0 0)"/>
  <path class="cls-1" d="M925.37,347.47s-37.88-4.22-34.75,22.64c0,0-1.13,4.66,3,7,0,0,.17-2,4-1.11a17.31,17.31,0,0,0,4.12.41,8.53,8.53,0,0,0,5.15-1.83h0s10.91-3.87,16-21.11c0,0,3.26-3.66,3.19-4.64l-6.55,2.41s2,4.74,0,8.5c0,0,.21-8.32-1-8.18-.25,0-3.41,1.43-3.41,1.43s3.36,8.25.22,14c0,0,1.58-9.87-1.43-13.44L909.21,356s4,8.55.66,15.19c0,0,1.29-10.38-1.64-14.6l-4.25,3s3.72,8.41.91,13.91c0,0,.29-12.14-1.84-13.16,0,0-3.73,3-4.35,4.24,0,0,2.54,6.1.62,9.15,0,0-.67-8.13-1.55-8.21,0,0-3.84,5.17-4.4,8.82a19.47,19.47,0,0,1,3.56-9.38,10.67,10.67,0,0,0-5.6,2.55s.74-3.76,6.54-3.8c0,0,3.16-3.91,4-4.11,0,0-5.73-.78-9.3.59,0,0,3.25-3.41,10.4-1.42l4.2-3.09s-7.52-1.42-10.79-.44c0,0,3.86-3,11.92-.26l4.53-2.4s-6.39-1.72-10.26-1.41c0,0,4.17-2,11.58.77l3.22-1.26s-4.69-1.17-6.07-1.38-1.43-.6-1.43-.6a16.41,16.41,0,0,1,8.84,1.43S925.47,347.9,925.37,347.47Z" transform="translate(0 0)"/>
  <path class="cls-1" d="M983.28,382.85s-37.88-4.21-34.75,22.64c0,0-1.12,4.66,3,7,0,0,.17-2,4-1.1a17.75,17.75,0,0,0,4.11.4,8.68,8.68,0,0,0,5.13-1.82h0s10.9-3.87,15.94-21.12c0,0,3.27-3.65,3.19-4.64l-6.55,2.41s2,4.74,0,8.5c0,0,.21-8.31-1-8.18-.25,0-3.41,1.43-3.41,1.43s3.36,8.25.22,14c0,0,1.58-9.87-1.43-13.43l-4.65,2.4s4,8.55.66,15.19c0,0,1.29-10.38-1.64-14.59l-4.25,3s3.72,8.41.92,13.92c0,0,.28-12.15-1.85-13.17,0,0-3.73,3-4.35,4.24,0,0,2.54,6.1.62,9.15,0,0-.67-8.13-1.55-8.21,0,0-3.84,5.17-4.39,8.82a19.55,19.55,0,0,1,3.55-9.38,10.75,10.75,0,0,0-5.6,2.55s.75-3.76,6.55-3.79c0,0,3.15-3.91,4-4.12,0,0-5.73-.77-9.3.6,0,0,3.25-3.42,10.4-1.43l4.2-3.09s-7.52-1.42-10.79-.44c0,0,3.86-3,11.92-.25l4.53-2.41s-6.39-1.72-10.26-1.41c0,0,4.17-2,11.58.77l3.22-1.25s-4.69-1.17-6.06-1.39-1.44-.6-1.44-.6a16.42,16.42,0,0,1,8.84,1.44S983.38,383.28,983.28,382.85Z" transform="translate(0 0)"/>
  <path class="cls-1" d="M854.71,84.84S824.19,62,813.28,86.74c0,0-3.33,3.45-.94,7.58,0,0,1.14-1.61,4,1.06a17.45,17.45,0,0,0,3.34,2.44,8.58,8.58,0,0,0,5.37,1h0S836.41,101,849.5,88.7c0,0,4.66-1.5,5.1-2.38l-6.87-1.24s-.72,5.07-4.27,7.34c0,0,4.39-7.06,3.25-7.57-.23-.11-3.66-.5-3.66-.5s-1.29,8.82-6.89,12.15c0,0,6.37-7.71,5.58-12.31l-5.23-.28s-.89,9.39-7.13,13.43c0,0,6.38-8.29,6-13.41l-5.18.42s-1,9.13-6.26,12.45c0,0,6.4-10.32,5.08-12.28,0,0-4.73.67-5.9,1.45,0,0-.9,6.54-4.1,8.2,0,0,3.54-7.35,2.82-7.86,0,0-5.93,2.51-8.26,5.37a19.57,19.57,0,0,1,7.82-6.28,10.77,10.77,0,0,0-6.12-.64s2.55-2.86,7.57,0c0,0,4.69-1.77,5.49-1.55,0,0-4.55-3.57-8.32-4.19,0,0,4.54-1.3,9.69,4l5.19-.53s-5.76-5-9.08-5.84c0,0,4.83-.61,10.4,5.81l5.13.23s-4.64-4.72-8.13-6.42c0,0,4.6.4,9.59,6.53l3.41.55s-3.45-3.38-4.53-4.26-.92-1.17-.92-1.17a16.37,16.37,0,0,1,6.88,5.72S854.58,85.25,854.71,84.84Z" transform="translate(0 0)"/>
  <path class="cls-1" d="M878.29,249.66S867.77,213,844.11,226.18c0,0-4.74.73-5.33,5.47,0,0,1.88-.59,2.53,3.24a17.4,17.4,0,0,0,1.2,4,8.59,8.59,0,0,0,3.66,4.08h0s7.74,8.6,25.6,6.68c0,0,4.62,1.62,5.5,1.18l-4.73-5.14s-3.63,3.62-7.83,3.28c0,0,7.76-3,7.16-4.07-.12-.22-2.62-2.61-2.62-2.61s-6.34,6.26-12.82,5.53c0,0,9.73-2.3,11.87-6.44l-4-3.38s-6.38,6.94-13.79,6.4c0,0,10.08-2.77,12.86-7.08L859,234.53s-6.35,6.65-12.51,6.15c0,0,11.33-4.37,11.47-6.72,0,0-4.18-2.32-5.59-2.4,0,0-4.67,4.66-8.22,4.06,0,0,7.26-3.73,7-4.57,0,0-6.24-1.57-9.83-.7a19.6,19.6,0,0,1,10-.29,10.73,10.73,0,0,0-4.5-4.2s3.76-.75,6,4.6c0,0,4.81,1.42,5.31,2.08,0,0-1.47-5.59-4.1-8.36,0,0,4.4,1.7,5.29,9.06l4.46,2.71s-1.56-7.5-3.72-10.14c0,0,4.22,2.43,4.79,10.91l4,3.27s-.85-6.56-2.61-10c0,0,3.43,3.1,3.71,11l2.38,2.5s-.7-4.78-1-6.14,0-1.55,0-1.55a16.39,16.39,0,0,1,2,8.72S877.93,249.9,878.29,249.66Z" transform="translate(0 0)"/>
  <path class="cls-1" d="M643.87,332.2s-20.43-32.18-39.4-12.92c0,0-4.34,2-3.58,6.75,0,0,1.65-1.1,3.35,2.4a17.17,17.17,0,0,0,2.26,3.46,8.54,8.54,0,0,0,4.65,2.88h0s9.85,6.08,26.45-.8c0,0,4.89.26,5.61-.41l-6-3.6s-2.47,4.5-6.6,5.35c0,0,6.62-5,5.73-5.92-.17-.18-3.25-1.76-3.25-1.76s-4.33,7.78-10.75,8.91c0,0,8.69-5,9.59-9.53l-4.79-2.11s-4.17,8.45-11.43,10c0,0,8.9-5.49,10.35-10.41l-5-1.44s-4.22,8.17-10.27,9.42c0,0,9.64-7.38,9.11-9.68,0,0-4.66-1.05-6-.73,0,0-3.17,5.79-6.75,6.21,0,0,5.92-5.62,5.43-6.36,0,0-6.43.25-9.63,2.1a19.41,19.41,0,0,1,9.54-3.1,10.74,10.74,0,0,0-5.49-2.77s3.39-1.77,7,2.73c0,0,5,0,5.69.5,0,0-3-5-6.29-6.87,0,0,4.7.4,7.62,7.21l5.05,1.34s-3.61-6.75-6.42-8.68c0,0,4.73,1.14,7.66,9.13l4.72,2s-2.66-6.05-5.33-8.88c0,0,4.16,2,6.65,9.51l3,1.73s-2-4.39-2.71-5.6-.43-1.49-.43-1.49a16.43,16.43,0,0,1,4.41,7.79S643.6,332.54,643.87,332.2Z" transform="translate(0 0)"/>
  <path class="cls-3" d="M778.14,167.78s-19.43-32.79-39-14.13c0,0-4.4,1.9-3.78,6.64,0,0,1.67-1.06,3.27,2.49a17.08,17.08,0,0,0,2.15,3.54,8.51,8.51,0,0,0,4.56,3h0s9.65,6.38,26.46,0c0,0,4.88.41,5.62-.24l-5.87-3.78s-2.6,4.41-6.76,5.14c0,0,6.77-4.83,5.92-5.74-.18-.19-3.2-1.87-3.2-1.87s-4.57,7.65-11,8.58c0,0,8.84-4.68,9.87-9.22L761.66,160s-4.43,8.33-11.74,9.66c0,0,9.07-5.21,10.67-10.08l-4.94-1.6s-4.48,8-10.56,9.1c0,0,9.86-7.08,9.4-9.39,0,0-4.62-1.2-6-.92,0,0-3.35,5.69-6.94,6,0,0,6.09-5.42,5.63-6.18,0,0-6.44.05-9.69,1.8a19.49,19.49,0,0,1,9.63-2.8,10.73,10.73,0,0,0-5.41-2.94s3.45-1.67,7,2.94c0,0,5,.17,5.67.68,0,0-2.83-5-6.07-7.06,0,0,4.68.54,7.39,7.44l5,1.5s-3.39-6.86-6.15-8.88c0,0,4.7,1.29,7.38,9.36l4.65,2.17s-2.47-6.13-5-9c0,0,4.09,2.13,6.36,9.71l2.93,1.82s-1.88-4.45-2.54-5.68-.38-1.5-.38-1.5a16.36,16.36,0,0,1,4.17,7.92S777.85,168.11,778.14,167.78Z" transform="translate(0 0)"/>
  <path class="cls-3" d="M655.21,236.73s1-38.1-25.47-32.73c0,0-4.74-.73-6.74,3.61,0,0,2,0,1.44,3.85a17.91,17.91,0,0,0-.06,4.14,8.52,8.52,0,0,0,2.25,5h0s4.77,10.54,22.38,14.12c0,0,3.91,2.95,4.89,2.79l-3-6.32s-4.55,2.34-8.46.75c0,0,8.3-.49,8.07-1.71,0-.25-1.72-3.29-1.72-3.29s-7.94,4.05-13.89,1.39c0,0,10,.75,13.27-2.54l-2.79-4.43s-8.18,4.68-15.08,1.92c0,0,10.45.42,14.41-2.85l-3.33-4s-8.07,4.42-13.79,2.08c0,0,12.12-.73,13-2.94,0,0-3.28-3.47-4.6-4,0,0-5.86,3-9.06,1.38,0,0,8-1.34,8.05-2.23,0,0-5.47-3.39-9.16-3.64a19.44,19.44,0,0,1,9.65,2.76,10.81,10.81,0,0,0-3-5.37s3.81.43,4.33,6.2c0,0,4.17,2.82,4.44,3.6,0,0,.29-5.77-1.38-9.21,0,0,3.68,2.95,2.3,10.23l3.43,3.94s.78-7.62-.47-10.79c0,0,3.28,3.59,1.26,11.85l2.77,4.31s1.18-6.51.55-10.34c0,0,2.32,4,.2,11.61l1.52,3.1s.77-4.77.87-6.16.48-1.48.48-1.48a16.47,16.47,0,0,1-.69,8.93S654.77,236.86,655.21,236.73Z" transform="translate(0 0)"/>
  <ellipse class="cls-1" cx="698.97" cy="716.3" rx="26.93" ry="4.55"/>
  <ellipse class="cls-1" cx="600.8" cy="785.38" rx="26.93" ry="4.55"/>
  <ellipse class="cls-1" cx="805.06" cy="780.83" rx="26.93" ry="4.55"/>
  <ellipse class="cls-3" cx="833.1" cy="723.1" rx="40.21" ry="6.8"/>
  <path class="cls-3" d="M849.77,712a11.59,11.59,0,0,0,3.83-5.78c.5-2.3-.48-5.05-2.67-5.89-2.46-.94-5.09.76-7.09,2.48s-4.27,3.69-6.88,3.33a10.5,10.5,0,0,0,3.24-9.81,4,4,0,0,0-.9-2c-1.37-1.46-3.84-.83-5.48.32-5.2,3.66-6.65,10.72-6.68,17.08-.52-2.29-.08-4.68-.09-7s-.66-5-2.65-6.22a7.87,7.87,0,0,0-4-1c-2.34-.08-4.95.15-6.54,1.86-2,2.12-1.47,5.69.25,8s4.35,3.8,6.77,5.42a15.12,15.12,0,0,1,4.84,4.61,4.93,4.93,0,0,1,.35.82h14.66A40.61,40.61,0,0,0,849.77,712Z" transform="translate(0 0)"/>
  <path class="cls-4" d="M804.54,780.93c110-10.66,209.6-130.94,194-264.78S741.67,194.42,748.05,296.27c12.29,196.27-90.16,276-170.6,265.51C433.41,543.07,587.9,801.91,804.54,780.93Z" transform="translate(0 0)"/>
  <polygon class="cls-3" points="696.85 613.04 695.62 614.84 693.27 614.06 692.94 614.55 695.29 615.33 694.06 617.12 694.7 617.34 695.93 615.54 698.28 616.32 698.61 615.83 696.26 615.05 697.49 613.25 696.85 613.04"/>
  <polygon class="cls-3" points="843.96 472.9 842.73 474.7 840.38 473.92 840.05 474.41 842.39 475.19 841.17 476.98 841.81 477.19 843.03 475.4 845.38 476.18 845.72 475.69 843.37 474.91 844.6 473.11 843.96 472.9"/>
  <polygon class="cls-3" points="847.24 671.57 846.01 673.37 843.66 672.59 843.33 673.08 845.68 673.86 844.45 675.65 845.09 675.87 846.32 674.07 848.66 674.85 849 674.36 846.65 673.58 847.88 671.78 847.24 671.57"/>
  <polygon class="cls-3" points="934.71 512.49 933.48 514.28 931.13 513.51 930.8 514 933.15 514.77 931.92 516.57 932.56 516.78 933.79 514.99 936.14 515.77 936.47 515.27 934.12 514.5 935.35 512.7 934.71 512.49"/>
  <polygon class="cls-3" points="910.31 653.7 909.08 655.5 906.74 654.72 906.4 655.21 908.75 655.98 907.52 657.78 908.16 657.99 909.39 656.2 911.74 656.98 912.07 656.49 909.72 655.71 910.95 653.91 910.31 653.7"/>
  <polygon class="cls-3" points="818.58 331.02 817.36 332.81 815.01 332.04 814.67 332.53 817.02 333.31 815.79 335.1 816.43 335.31 817.66 333.52 820.01 334.3 820.34 333.81 818 333.03 819.22 331.23 818.58 331.02"/>
  <polygon class="cls-3" points="729 708.82 727.77 710.62 725.42 709.84 725.09 710.33 727.44 711.11 726.21 712.9 726.85 713.11 728.08 711.32 730.42 712.1 730.76 711.61 728.41 710.83 729.64 709.03 729 708.82"/>
  <polygon class="cls-5" points="737.58 569.45 735.86 571.97 732.57 570.88 732.1 571.56 735.39 572.65 733.67 575.17 734.57 575.47 736.29 572.95 739.57 574.04 740.04 573.36 736.75 572.26 738.47 569.75 737.58 569.45"/>
  <ellipse class="cls-3" cx="785.1" cy="647.26" rx="3.29" ry="2.41" transform="translate(-69.66 95.25) rotate(-6.65)"/>
  <ellipse class="cls-3" cx="795.98" cy="740.66" rx="3.29" ry="2.41" transform="translate(-80.4 97.14) rotate(-6.65)"/>
  <ellipse class="cls-3" cx="657.15" cy="591.78" rx="3.29" ry="2.41" transform="translate(-64.1 80.07) rotate(-6.65)"/>
  <ellipse class="cls-3" cx="859.14" cy="590.89" rx="3.29" ry="2.41" transform="translate(-62.64 103.45) rotate(-6.65)"/>
  <ellipse class="cls-3" cx="790.69" cy="600.49" rx="2.19" ry="1.61" transform="translate(-64.21 95.59) rotate(-6.65)"/>
  <ellipse class="cls-6" cx="867.49" cy="425.66" rx="2.19" ry="1.61" transform="translate(-43.45 103.3) rotate(-6.65)"/>
  <ellipse class="cls-6" cx="777.21" cy="683.78" rx="2.19" ry="1.61" transform="translate(-73.94 94.59) rotate(-6.65)"/>
  <ellipse class="cls-6" cx="589.07" cy="604.57" rx="2.19" ry="1.61" transform="translate(-66.03 72.27) rotate(-6.65)"/>
  <ellipse class="cls-3" cx="698.03" cy="658.22" rx="2.19" ry="1.61" transform="translate(-71.51 85.25) rotate(-6.65)"/>
  <ellipse class="cls-5" cx="622.7" cy="646.77" rx="2.19" ry="1.61" transform="translate(-70.69 76.45) rotate(-6.65)"/>
  <ellipse class="cls-3" cx="790.99" cy="385.21" rx="3.29" ry="2.41" transform="translate(-39.28 94.17) rotate(-6.65)"/>
  <ellipse class="cls-3" cx="821.5" cy="542.68" rx="3.29" ry="2.41" transform="translate(-57.31 98.76) rotate(-6.65)"/>
  <ellipse class="cls-3" cx="903.6" cy="574.38" rx="10.97" ry="8.04" transform="translate(-60.42 108.48) rotate(-6.65)"/>
  <ellipse class="cls-5" cx="773.58" cy="491.62" rx="3.29" ry="2.41" transform="translate(-51.72 92.87) rotate(-6.65)"/>
  <path class="cls-4" d="M981,81.7a45.57,45.57,0,0,1-9.45-.49c-10.71-1.34-25-4.49-25-4.49S871.79,64.46,823,26.86c0,0-6.85-6.41,2-10.42a25,25,0,0,1,4.21-1.4l.11-.07a20.09,20.09,0,0,1,3.27-1.5,18.92,18.92,0,0,1,14.28.26l137.65,61S988.66,80.77,981,81.7Z" transform="translate(0 0)"/>
  <path class="cls-4" d="M955.14,63.34,991,48.59l12.66,5.79-19,20.39S954.48,67.37,955.14,63.34Z" transform="translate(0 0)"/>
  <polygon class="cls-4" points="882.78 30.4 947.27 28.04 956.4 32.62 926.04 38.5 915.04 46.28 882.78 30.4"/>
  <path class="cls-3" d="M971.54,81.21c-10.71-1.34-25-4.49-25-4.49S871.79,64.46,823,26.86c0,0-6.85-6.41,2-10.42v.11s9.68,11.39,64.38,32.77Z" transform="translate(0 0)"/>
  <path class="cls-4" d="M962,78.27l23.89,18.32,6.94.93L980,80.79S961.73,71.5,962,78.27Z" transform="translate(0 0)"/>
  <path class="cls-3" d="M834.48,20.26C833.2,20,830.84,17,829.4,15a19.33,19.33,0,0,1,3.27-1.51c1.17,1.56,3.3,4.14,4.77,4.44C839.57,18.35,836.42,20.71,834.48,20.26Z" transform="translate(0 0)"/>
  <path class="cls-4" d="M940.11,115l-17.46-3.44L883,65l-7.37-8.65L872,52.11c10-5.17,40.91,13.35,40.91,13.35a3.28,3.28,0,0,1,.16,2.75A16.73,16.73,0,0,1,910.53,73c-.13.18-.21.27-.21.27Z" transform="translate(0 0)"/>
  <path class="cls-7" d="M316.87,723.19s-5.2,21.78-.47,22.72,27.91.64,33.59,1.59,17.5-.64,17.5-4.9-12.3-7.1-12.3-7.1-17.5-9.47-18-9.94S316.87,723.19,316.87,723.19Z" transform="translate(0 0)"/>
  <path class="cls-7" d="M322.44,567.73s1.7,19.24,1.7,20.94S314,679.78,316.22,697.89s-.21,23.89-.21,27.29,18.31,2.14,18.31,2.14l19.8-125.07L343.94,564.9Z" transform="translate(0 0)"/>
  <path class="cls-7" d="M323.49,728s-4.73,17,0,18,27.92-1.09,33.59-.14,17.51,1.08,17.51-3.18-12.3-7.1-12.3-7.1-17.51-9.46-18-9.94S323.49,728,323.49,728Z" transform="translate(0 0)"/>
  <path class="cls-7" d="M317.35,545.09s-6.78,16.41,1.13,24.9,17,25.47,17,26.6S319.62,710.34,321.88,717.7s1.69,11.88,1.13,13,5.66,7.36,12.44,7.36,17-5.1,18.1-9.62-1.69-43.58-1.13-50.93,23.19-125.07,20.36-127.9S317.35,545.09,317.35,545.09Z" transform="translate(0 0)"/>
  <ellipse class="cls-8" cx="360.34" cy="395.68" rx="19.23" ry="19.24"/>
  <path class="cls-8" d="M348.46,405.31s4,20.94,1.13,23.2,21.5,5.66,21.5,5.66,2.82-27.73,3.39-30.56S348.46,405.31,348.46,405.31Z" transform="translate(0 0)"/>
  <path class="cls-3" d="M374.48,432.47s3.65-19.94-24.07-14.28c0,0-25.3,20.76-24.17,40s-8.89,75-7.76,79-6.78,9.05-3.39,10.75,64.48,11.88,66.18,0-.57-41.88.56-47.54,0-53.19-3.39-58.85S374.48,432.47,374.48,432.47Z" transform="translate(0 0)"/>
  <path class="cls-8" d="M362.6,570.56s-8.48,32.25,2.26,32.25,10.19-33.39,10.19-33.39Z" transform="translate(0 0)"/>
  <path class="cls-7" d="M368.17,398.9c-.24,1.62-2.75,2.3-6.42,2h0a31.28,31.28,0,0,1-4.61-.79c-2.3-.57-3.59,1.48-4.42,4.3-1.37,4.67-1.48,11.48-2.68,12.37-8.41,4.65-33.24-26.52-20.51-34.59,4.53-2.87,19.79-13.6,30.33-11.43S366.12,386,366.12,386s.39,1.71.83,3.92a60,60,0,0,1,1.26,8.45A3.23,3.23,0,0,1,368.17,398.9Z" transform="translate(0 0)"/>
  <path class="cls-3" d="M369.39,438.13S350.16,437,348.46,465.3s-1.13,54.89-1.13,55.46,7.92,54.32,15.27,54.32,13-1.13,14.71-4-4.53-43.57-4.53-43.57-2.82-43,1.7-56.59S379.57,439.83,369.39,438.13Z" transform="translate(0 0)"/>
  <polyline class="cls-9" points="347.63 473.07 342.05 533.54 360.64 575.4 348.56 532.61 347.63 472.14"/>
  <polygon class="cls-9" points="374.59 479.59 376.01 550.87 370.87 512.14 374.59 479.59"/>
</svg>
