<svg id="ee5053fc-ea24-484a-861d-c80bd2ae1a91" xmlns="http://www.w3.org/2000/svg" viewBox="0 0 982.49 763.01"><defs><style>.cls-1{fill:#e6e6e6;}.cls-2{fill:#3f3d56;}.cls-3{fill:#7b77ff;}.cls-4{fill:#fff;}.cls-5{fill:#2f2e41;}.cls-6{fill:#fbbebe;}.cls-7{fill:#575a89;}.cls-8{opacity:0.4;isolation:isolate;}.cls-9{fill:#f2f2f2;}</style></defs><circle class="cls-1" cx="559.43" cy="333.06" r="40.03"/><path class="cls-2" d="M657.54,384.5l-41.83-41.83a44.31,44.31,0,0,0-13.31-61.23l-1.12-.7A44.31,44.31,0,1,0,602.4,356l41.83,41.83a9.41,9.41,0,0,0,13.31-13.31Zm-56.7-43.39a31.69,31.69,0,1,1,9.28-22.41A31.69,31.69,0,0,1,600.84,341.11Z" transform="translate(0 0)"/><path class="cls-1" d="M960.77,446.21c107,118.3-203.13,288.8-453.72,288.8S83.11,602.91,53.33,446.21C-18.86,66.26,668.41-175.23,507.05,157.4,271.86,642.25,876.52,353,960.77,446.21Z" transform="translate(0 0)"/><path class="cls-2" d="M912.77,474.21c107,118.3-203.13,288.8-453.72,288.8S35.11,630.91,5.33,474.21C-66.86,94.26,620.41-147.23,459.05,185.4,223.86,670.25,828.52,381,912.77,474.21Z" transform="translate(0 0)"/><path class="cls-3" d="M149.59,196.83C74.53,193.52,16.32,177.33,17.09,160c.46-10.41,21.7-18.78,58.28-23a1,1,0,1,1,.24,2h0c-34.46,3.94-56.12,12-56.51,21.07-.7,15.7,59.11,31.63,130.59,34.78s132.46-7.46,133.15-23.17c.4-9.09-20.6-19.06-54.8-26a1,1,0,0,1,.4-2h0c36.3,7.39,56.86,17.63,56.4,28.08C284.06,189.12,224.66,200.13,149.59,196.83Z" transform="translate(0 0)"/><path class="cls-3" d="M82.92,199.73a77,77,0,0,0,133,5.53A1213.46,1213.46,0,0,1,82.92,199.73Z" transform="translate(0 0)"/><path class="cls-3" d="M224.26,184.22a77,77,0,1,0-147.75-5.71A571.77,571.77,0,0,0,224.26,184.22Z" transform="translate(0 0)"/><circle class="cls-4" cx="168.83" cy="123.6" r="9"/><circle class="cls-4" cx="122.51" cy="152.59" r="15"/><circle class="cls-1" cx="122.9" cy="518.9" r="6"/><circle class="cls-1" cx="542.9" cy="658.9" r="6"/><circle class="cls-1" cx="151.9" cy="339.9" r="3"/><circle class="cls-1" cx="399.9" cy="563.9" r="3"/><circle class="cls-1" cx="850.9" cy="534.9" r="3"/><circle class="cls-1" cx="709.9" cy="623.9" r="3"/><circle class="cls-1" cx="562.9" cy="515.9" r="3"/><circle class="cls-1" cx="372.9" cy="219.9" r="3"/><circle class="cls-1" cx="396.9" cy="71.9" r="3"/><circle class="cls-1" cx="382.9" cy="694.9" r="3"/><circle class="cls-1" cx="234.9" cy="631.9" r="3"/><circle class="cls-1" cx="703.9" cy="523.9" r="3"/><circle class="cls-4" cx="148.37" cy="224.8" r="9"/><circle class="cls-3" cx="294.9" cy="358.9" r="29"/><ellipse class="cls-4" cx="294.4" cy="496.4" rx="33.5" ry="6.5"/><ellipse class="cls-2" cx="447.4" cy="403.9" rx="12.18" ry="47.5" transform="translate(-147.23 305.33) rotate(-32.66)"/><ellipse class="cls-2" cx="790.81" cy="467.62" rx="73.36" ry="11.38"/><path class="cls-5" d="M796.86,202.51c-6.22-10.63-18.51-11.12-18.51-11.12s-12-1.55-19.67,14.63c-7.17,15.08-17,29.64-1.59,33.17l2.79-8.79,1.73,9.44a60.76,60.76,0,0,0,6.61.12c16.56-.54,32.33.16,31.82-5.85C799.36,226.12,802.84,212.73,796.86,202.51Z" transform="translate(0 0)"/><path class="cls-6" d="M774.47,222.51s8,11.38,3.22,20.59,11.24,19,11.24,19l11.78-26s-13.92-9.21-10.17-17.88Z" transform="translate(0 0)"/><ellipse class="cls-6" cx="779.83" cy="213.3" rx="13.92" ry="14.08"/><path class="cls-6" d="M731.65,229.59l11.63-15.19s4.1-15.92,10-15.11S751,218.38,751,218.38l-11.56,16.81Z" transform="translate(0 0)"/><polygon class="cls-6" points="790.54 431.6 794.29 451.64 802.32 453.81 800.18 429.98 790.54 431.6"/><polygon class="cls-6" points="871.39 409.94 885.85 429.98 891.74 432.69 896.56 424.56 882.1 405.6 871.39 409.94"/><path class="cls-7" d="M787.33,253.39l-8.94-11.9s-17.3,3.23-18.91,4.86,4.29,31.41,4.29,31.41,1.07,8.13,5.89,12.46l4.81,3.25,39.63-8.12,1.49-17.84a47.13,47.13,0,0,0-12.2-35.79h0l-6.9,1Z" transform="translate(0 0)"/><path class="cls-7" d="M761.62,247.43,759,246.35l-12.32-1.09s-4.28-1.08-3.21-3.25,2.14-2.7,0-3.25-2.68-1.08-2.14-2.7,3.74-4.88,3.74-4.88l-9.1-7.58s-.49.35-1.29,1c-4.52,3.7-18.82,17.06-8.35,30.41,12.32,15.71,26.78,24.92,38.56,21.67Z" transform="translate(0 0)"/><path class="cls-5" d="M773.4,290.77v7.58s-4.82,9.21-3.21,17.87,2.14,13,2.14,13a74.86,74.86,0,0,0,3.75,21.67c3.75,10.84-8.57,81.8,7,82.88s24.1,2.17,28.92-3.25-8-98.59-8-98.59,43.91,92.63,53,88.84,32.12-12.46,29.45-17.33-70.15-113.22-70.15-113.22l-2.14-4.87Z" transform="translate(0 0)"/><path class="cls-5" d="M799.11,447.85s-8.57-.54-8.57,2.17-4.29,11.92-4.29,11.92-3.21,10.83,5.36,9.75,13.92-10.84,13.92-10.84l-2.14-10.29Z" transform="translate(0 0)"/><path class="cls-5" d="M888.53,428.89s-7.5-4.87-7-1.62,1.07,11.92,4.82,12.46,15,3.79,15.52,4.87S915.3,450,915.3,443s-8-12.46-8-12.46l-9.1-7s-5.89-.54-7,3.25S888.53,428.89,888.53,428.89Z" transform="translate(0 0)"/><ellipse class="cls-5" cx="779.85" cy="191.44" rx="8.89" ry="8.99"/><path class="cls-5" d="M770,189.08a9,9,0,0,1,8-9c-.31,0-.62,0-.94,0a9,9,0,0,0,0,18h0c.32,0,.63,0,.94,0A9,9,0,0,1,770,189.08Z" transform="translate(0 0)"/><polygon class="cls-5" points="794.11 201.48 781.96 195.05 765.18 197.68 761.71 213.19 770.36 212.85 772.77 207.15 772.77 212.76 776.75 212.6 779.07 203.53 780.51 213.19 794.69 212.89 794.11 201.48"/><path class="cls-6" d="M793.38,292l-18.73.51s-16,3.15-15.09-3.38,16.49-4.24,16.49-4.24l17.07-2.64Z" transform="translate(0 0)"/><path class="cls-7" d="M808.2,230.8a4,4,0,0,1,4.41,2.78c3.67,11.69,15,50.82,3.74,56.19-13.22,6.32-22.87,6-22.87,6L788.32,283l4.7-4.47,5-32.65,2.4-13.84Z" transform="translate(0 0)"/><polygon class="cls-8" points="804.73 252.58 802.59 274.24 783.85 282.37 804.73 277.49 804.73 252.58"/><path class="cls-2" d="M703.66,181.05h0a25,25,0,0,1,14.64,10.76l1.76,2.74.08.12,30.73,9.09a2.27,2.27,0,0,1,1.53,2.77L750,215.38a2.24,2.24,0,0,1-2.75,1.59h0l-30.73-8.69h0l-3.09,1.18a27.29,27.29,0,0,1-17.73.61h0Z" transform="translate(0 0)"/><ellipse class="cls-7" cx="732.64" cy="205.71" rx="1.9" ry="3.52" transform="translate(325.8 848.8) rotate(-73.36)"/><ellipse class="cls-2" cx="734.45" cy="206.33" rx="1.29" ry="1.3"/><ellipse class="cls-3" cx="699.76" cy="195.68" rx="15.2" ry="6.81" transform="translate(300.85 803) rotate(-72.33)"/><path class="cls-8" d="M705.27,197.52c2.47-7.7,1.8-14.88-1.45-16.44a3.75,3.75,0,0,1,.58.13c3.57,1.17,4.39,8.6,1.83,16.6s-7.54,13.52-11.11,12.35a2.54,2.54,0,0,1-.38-.16C698.25,210.46,702.84,205.1,705.27,197.52Z" transform="translate(0 0)"/><path class="cls-3" d="M704.06,181.07l-69.73-54.72a462.91,462.91,0,0,1-35.46-31.08C579,76.1,552,60.77,520.59,52.61c-76.34-19.82-136.81,15.33-164.32,66.94-42,78.87-74.24,206.86,112.12,138.73,40.76-14.9,82-16.48,113.3-24.33L695,210.33Z" transform="translate(0 0)"/><ellipse class="cls-9" cx="494.7" cy="85.2" rx="3.75" ry="3.79"/><polygon class="cls-9" points="567.51 93.96 566.53 93.96 566.53 92.97 566.34 92.97 566.34 93.96 565.37 93.96 565.37 94.15 566.34 94.15 566.34 95.14 566.53 95.14 566.53 94.15 567.51 94.15 567.51 93.96"/><polygon class="cls-9" points="665.5 176.3 664.52 176.3 664.52 175.31 664.33 175.31 664.33 176.3 663.36 176.3 663.36 176.49 664.33 176.49 664.33 177.48 664.52 177.48 664.52 176.49 665.5 176.49 665.5 176.3"/><polygon class="cls-9" points="658.54 201.76 657.56 201.76 657.56 200.77 657.37 200.77 657.37 201.76 656.4 201.76 656.4 201.95 657.37 201.95 657.37 202.94 657.56 202.94 657.56 201.95 658.54 201.95 658.54 201.76"/><polygon class="cls-9" points="359.22 223.42 358.24 223.42 358.24 222.44 358.05 222.44 358.05 223.42 357.08 223.42 357.08 223.62 358.05 223.62 358.05 224.6 358.24 224.6 358.24 223.62 359.22 223.62 359.22 223.42"/><polygon class="cls-9" points="402.05 105.34 401.08 105.34 401.08 104.35 400.89 104.35 400.89 105.34 399.91 105.34 399.91 105.53 400.89 105.53 400.89 106.52 401.08 106.52 401.08 105.53 402.05 105.53 402.05 105.34"/><polygon class="cls-9" points="568.58 206.09 567.61 206.09 567.61 205.1 567.41 205.1 567.41 206.09 566.44 206.09 566.44 206.28 567.41 206.28 567.41 207.27 567.61 207.27 567.61 206.28 568.58 206.28 568.58 206.09"/><polygon class="cls-9" points="466.31 70.67 465.33 70.67 465.33 69.68 465.14 69.68 465.14 70.67 464.17 70.67 464.17 70.86 465.14 70.86 465.14 71.85 465.33 71.85 465.33 70.86 466.31 70.86 466.31 70.67"/><path class="cls-1" d="M466.68,148.66l-1.21.19c.38,2.46.68,5,.9,7.46l1.22-.11C467.37,153.68,467.07,151.15,466.68,148.66Z" transform="translate(0 0)"/><path class="cls-1" d="M463.36,133.85l-1.18.36c.71,2.39,1.35,4.83,1.89,7.26l1.21-.28C464.72,138.74,464.08,136.27,463.36,133.85Z" transform="translate(0 0)"/><path class="cls-1" d="M458.05,119.65l-1.12.52c1,2.27,2,4.6,2.87,6.92l1.15-.43C460.07,124.3,459.1,121.94,458.05,119.65Z" transform="translate(0 0)"/><path class="cls-1" d="M450.88,106.33l-1,.67c1.32,2.1,2.59,4.28,3.77,6.46l1.08-.6C453.5,110.65,452.22,108.46,450.88,106.33Z" transform="translate(0 0)"/><path class="cls-1" d="M442,94.13l-.94.81c1.6,1.89,3.15,3.87,4.62,5.88l1-.74C445.14,98.05,443.57,96.05,442,94.13Z" transform="translate(0 0)"/><path class="cls-1" d="M431.47,83.26l-.82.93c1.85,1.66,3.65,3.41,5.37,5.19l.88-.87C435.16,86.71,433.34,84.94,431.47,83.26Z" transform="translate(0 0)"/><path class="cls-1" d="M419.63,73.93l-.69,1c2,1.4,4.07,2.88,6,4.41l.76-1C423.74,76.84,421.69,75.34,419.63,73.93Z" transform="translate(0 0)"/><path class="cls-1" d="M408.85,67.46v1.4c1.28.68,2.55,1.39,3.79,2.12l.62-1.08Q411.09,68.63,408.85,67.46Z" transform="translate(0 0)"/><path class="cls-1" d="M466.77,164l1.23,0c0,1.26,0,2.52,0,3.76l-1.23,0C466.79,166.49,466.79,165.24,466.77,164Z" transform="translate(0 0)"/><path class="cls-1" d="M394.4,255.37l-1.22.19c.38,2.46.68,5,.9,7.46l1.23-.11C395.09,260.39,394.78,257.86,394.4,255.37Z" transform="translate(0 0)"/><path class="cls-1" d="M391.07,240.56l-1.18.36c.72,2.39,1.35,4.83,1.89,7.26l1.21-.27C392.44,245.45,391.79,243,391.07,240.56Z" transform="translate(0 0)"/><path class="cls-1" d="M385.77,226.36l-1.12.52c1,2.27,2,4.6,2.86,6.93l1.15-.44C387.78,231,386.81,228.65,385.77,226.36Z" transform="translate(0 0)"/><path class="cls-1" d="M378.59,213l-1,.67c1.32,2.1,2.59,4.28,3.77,6.46l1.08-.59C381.21,217.37,379.93,215.17,378.59,213Z" transform="translate(0 0)"/><path class="cls-1" d="M369.67,200.84l-.94.81c1.6,1.89,3.15,3.88,4.62,5.88l1-.74C372.86,204.76,371.29,202.76,369.67,200.84Z" transform="translate(0 0)"/><path class="cls-1" d="M359.19,190l-.82.93c1.84,1.66,3.64,3.41,5.36,5.19l.89-.87C362.88,193.42,361.05,191.65,359.19,190Z" transform="translate(0 0)"/><path class="cls-1" d="M347.34,180.65l-.69,1c2.05,1.4,4.07,2.88,6,4.41l.76-1C351.45,183.55,349.41,182.05,347.34,180.65Z" transform="translate(0 0)"/><path class="cls-1" d="M336.56,174.17v1.41c1.28.67,2.55,1.38,3.79,2.11l.62-1.08Q338.79,175.33,336.56,174.17Z" transform="translate(0 0)"/><path class="cls-1" d="M394.48,270.7l1.23,0c0,1.26,0,2.52,0,3.76l-1.23,0C394.5,273.2,394.5,272,394.48,270.7Z" transform="translate(0 0)"/><path class="cls-1" d="M641.78,201.74l-1.22.19c.38,2.46.68,5,.9,7.46l1.23-.11C642.47,206.77,642.16,204.23,641.78,201.74Z" transform="translate(0 0)"/><path class="cls-1" d="M638.45,186.93l-1.17.37c.71,2.38,1.34,4.82,1.89,7.26l1.2-.28C639.82,191.82,639.17,189.35,638.45,186.93Z" transform="translate(0 0)"/><path class="cls-1" d="M633.15,172.73l-1.12.52c1,2.27,2,4.6,2.86,6.93l1.15-.44C635.16,177.38,634.19,175,633.15,172.73Z" transform="translate(0 0)"/><path class="cls-1" d="M626,159.42l-1,.66c1.33,2.1,2.59,4.28,3.77,6.47l1.08-.6C628.6,163.74,627.31,161.54,626,159.42Z" transform="translate(0 0)"/><path class="cls-1" d="M617.05,147.21l-.94.81c1.6,1.9,3.15,3.88,4.62,5.88l1-.74C620.24,151.13,618.67,149.13,617.05,147.21Z" transform="translate(0 0)"/><path class="cls-1" d="M606.57,136.35l-.82.92c1.84,1.67,3.64,3.42,5.36,5.2l.89-.87C610.26,139.79,608.43,138,606.57,136.35Z" transform="translate(0 0)"/><path class="cls-1" d="M594.72,127l-.69,1c2.05,1.39,4.07,2.87,6,4.41l.77-1C598.83,129.93,596.79,128.43,594.72,127Z" transform="translate(0 0)"/><path class="cls-1" d="M583.94,120.54V122c1.28.68,2.55,1.39,3.79,2.11l.62-1.08C586.9,122.14,585.44,121.32,583.94,120.54Z" transform="translate(0 0)"/><path class="cls-1" d="M641.86,217.08l1.23,0c0,1.26,0,2.53,0,3.76l-1.23,0C641.89,219.57,641.88,218.32,641.86,217.08Z" transform="translate(0 0)"/><polygon class="cls-9" points="403.85 155.28 402.94 155.28 402.94 154.36 402.76 154.36 402.76 155.28 401.85 155.28 401.85 155.46 402.76 155.46 402.76 156.38 402.94 156.38 402.94 155.46 403.85 155.46 403.85 155.28"/><polygon class="cls-9" points="393.38 210.72 392.48 210.72 392.48 209.81 392.3 209.81 392.3 210.72 391.39 210.72 391.39 210.9 392.3 210.9 392.3 211.82 392.48 211.82 392.48 210.9 393.38 210.9 393.38 210.72"/><polygon class="cls-9" points="362.68 259.32 361.77 259.32 361.77 258.4 361.6 258.4 361.6 259.32 360.69 259.32 360.69 259.5 361.6 259.5 361.6 260.42 361.77 260.42 361.77 259.5 362.68 259.5 362.68 259.32"/><ellipse class="cls-3" cx="53.76" cy="391.76" rx="49.76" ry="51.86"/><circle class="cls-4" cx="48.5" cy="423.45" r="9"/><circle class="cls-4" cx="27" cy="373.09" r="6"/><ellipse class="cls-4" cx="95.66" cy="456.25" rx="45.87" ry="8.12" transform="translate(-180.05 80.36) rotate(-24.42)"/></svg>